<svg width="1200" height="800" viewBox="0 0 1200 800" fill="none" xmlns="http://www.w3.org/2000/svg">
<g clip-path="url(#clip0_2003_5)">
<rect width="1200" height="800" fill="white"/>
<path d="M239.621 277.445L126.254 163.575C63.7136 226.261 28.5898 311.202 28.5898 399.759C28.5898 488.316 63.7136 573.256 126.254 635.942L240.103 522.072C207.664 489.666 189.397 445.716 189.306 399.858C189.216 354.001 207.31 309.979 239.621 277.445Z" fill="#E8710A"/>
<path d="M126.254 163.575L239.621 277.445C255.705 261.339 274.806 248.562 295.831 239.844C316.856 231.126 339.393 226.639 362.154 226.639C384.914 226.639 407.451 231.126 428.476 239.844C449.501 248.562 468.602 261.339 484.686 277.445L567.178 136.073L562.354 132.213C498.01 84.1988 418.54 60.9464 338.468 66.7048C258.396 72.4633 183.069 106.848 126.254 163.575Z" fill="#F9AB00"/>
<path d="M567.661 663.445L484.686 522.555C468.602 538.661 449.501 551.438 428.476 560.156C407.451 568.874 384.914 573.361 362.153 573.361C339.393 573.361 316.856 568.874 295.831 560.156C274.806 551.438 255.705 538.661 239.621 522.555L126.254 636.425C182.956 692.646 257.902 726.714 337.537 732.467C417.171 738.219 496.234 715.276 560.425 667.787L565.731 663.445" fill="#F9AB00"/>
<path d="M599.499 163.575C536.959 226.261 501.835 311.202 501.835 399.759C501.835 488.316 536.959 573.256 599.499 635.943L713.348 522.073C680.851 489.569 662.594 445.485 662.594 399.518C662.594 353.55 680.851 309.466 713.348 276.963C745.846 244.459 789.922 226.199 835.881 226.199C881.839 226.199 925.916 244.459 958.413 276.963L1072.74 163.575C1041.69 132.457 1004.81 107.769 964.207 90.9248C923.604 74.0805 880.079 65.4102 836.122 65.4102C792.165 65.4102 748.64 74.0805 708.037 90.9248C667.434 107.769 630.551 132.457 599.499 163.575Z" fill="#F9AB00"/>
<path d="M1072.75 163.575L959.379 277.445C991.876 309.949 1010.13 354.033 1010.13 400C1010.13 445.967 991.876 490.051 959.379 522.555C926.881 555.059 882.805 573.319 836.846 573.319C790.888 573.319 746.812 555.059 714.314 522.555L599.5 636.425C662.192 699.193 747.247 734.481 835.952 734.526C879.875 734.548 923.371 725.918 963.959 709.127C1004.55 692.336 1041.43 667.714 1072.5 636.666C1103.58 605.618 1128.23 568.753 1145.06 528.175C1161.89 487.597 1170.56 444.101 1170.59 400.171C1170.61 356.24 1161.98 312.735 1145.19 272.14C1128.41 231.545 1103.79 194.654 1072.75 163.575Z" fill="#E8710A"/>
</g>
<defs>
<clipPath id="clip0_2003_5">
<rect width="1200" height="800" fill="white"/>
</clipPath>
</defs>
</svg>
