<svg width="1200" height="800" viewBox="0 0 1200 800" fill="none" xmlns="http://www.w3.org/2000/svg">
<rect width="1200" height="800" fill="white"/>
<g clip-path="url(#clip0_2003_2)">
<path fill-rule="evenodd" clip-rule="evenodd" d="M598.88 24C391.581 24 224 196.333 224 409.533C224 579.955 331.375 724.214 480.332 775.271C498.956 779.11 505.777 766.976 505.777 756.769C505.777 747.831 505.164 717.195 505.164 685.274C400.881 708.257 379.165 639.316 379.165 639.316C362.406 594.635 337.575 583.151 337.575 583.151C303.443 559.534 340.061 559.534 340.061 559.534C377.922 562.087 397.789 599.108 397.789 599.108C431.299 657.826 485.297 641.235 507.021 631.021C510.121 606.126 520.058 588.893 530.609 579.321C447.436 570.383 359.928 537.193 359.928 389.104C359.928 346.976 374.814 312.51 398.403 285.704C394.681 276.132 381.644 236.55 402.132 183.573C402.132 183.573 433.785 173.358 505.156 223.147C535.712 214.708 567.225 210.415 598.88 210.378C630.533 210.378 662.8 214.851 692.596 223.147C763.974 173.358 795.627 183.573 795.627 183.573C816.116 236.55 803.071 276.132 799.349 285.704C823.559 312.51 837.832 346.976 837.832 389.104C837.832 537.193 750.323 569.74 666.529 579.321C680.188 591.447 691.974 614.422 691.974 650.808C691.974 702.508 691.36 744.001 691.36 756.761C691.36 766.976 698.19 779.11 716.806 775.279C865.763 724.206 973.138 579.955 973.138 409.533C973.752 196.333 805.557 24 598.88 24Z" fill="#24292F"/>
</g>
<defs>
<clipPath id="clip0_2003_2">
<rect width="752" height="752" fill="white" transform="translate(224 24)"/>
</clipPath>
</defs>
</svg>
